<?xml version="1.0" encoding="utf-8"?>
<!DOCTYPE svg PUBLIC "-//W3C//DTD SVG 1.1//EN" "http://www.w3.org/Graphics/SVG/1.1/DTD/svg11.dtd">
<svg style="width:308px;height:308px;" version="1.1" id="图形" xmlns="http://www.w3.org/2000/svg" xmlns:xlink="http://www.w3.org/1999/xlink" x="0px" y="0px" width="1024px" height="1024px" viewBox="0 0 1024 1024" enable-background="new 0 0 1024 1024" xml:space="preserve">
  <path class="svgpath" data-index="path_0" fill="#ffffff" d="M366.272 724.59c0 10.758 8.813 19.472 19.651 19.472 10.842 0 19.652-8.715 19.652-19.472l0-6.495-39.303 0L366.272 724.59zM433.154 524.378c10.811 0 19.587 8.649 19.587 19.372 0 0 0 0 0-0.001l0 0.001c0 0 0 0 0-0.001 0 10.721-8.776 19.405-19.587 19.405 0 0-11.205 0-27.578 0l0 154.94 78.379 0c10.807 0 19.587-8.684 19.587-19.37l-0.001 0.001-0.035 0 0.001-309.983c0-10.688-8.779-19.372-19.587-19.372l-78.344 0 0 155.008C421.951 524.378 433.154 524.378 433.154 524.378zM366.272 369.371l-78.187 0c-10.84 0-19.616 8.686-19.616 19.372l0 135.635 97.803 0L366.272 369.371zM511.996 0C179.332 0 0 179.333 0 512.002 0 844.675 179.332 1024 511.996 1024 844.672 1024 1024 844.675 1024 512.002 1024 179.333 844.672 0 511.996 0zM542.65 718.06c0 21.413-17.523 38.742-39.173 38.742L268.434 756.802c-21.652 0-39.173-17.33-39.173-38.742l0-348.69c0-21.411 17.522-38.744 39.173-38.744l97.838 0 0-81.175c0-10.724 8.811-19.436 19.651-19.436s19.652 8.714 19.652 19.436l0 81.175 97.902 0c21.648 0 39.173 17.367 39.173 38.778L542.65 718.06zM700.947 754.344c-17.551-1.554-26.334-9.456-26.334-23.648 3.179-15.742 13.53-23.646 31.085-23.646 47.849 4.731 69.404-9.463 64.622-42.57-1.603-44.149-18.376-92.354-50.244-144.377-6.387-9.461-11.954-19.698-16.738-30.775-1.639-1.553 0.755-10.237 7.173-26.045 17.557-42.562 31.082-83.609 40.681-123.063 3.174-18.918-2.393-27.601-16.774-26.045l-98.916 0c-9.596 1.586-14.379 8.715-14.379 21.285l0 466.275c0 20.96-39.303 20.96-39.303 0l0-487.53c-0.755-37.606 27.842-46.355 63.476-44.96l115.455 0 0.003-0.001c41.502-3.174 55.062 16.555 40.648 59.152-6.352 26.856-16.738 63.135-31.082 108.879-7.99 26.82-11.954 41.04-11.954 42.562-1.604 3.207 1.57 11.078 9.566 23.648 35.075 58.406 51.812 115.97 50.244 172.79C819.745 728.334 780.673 754.344 700.947 754.344zM405.576 369.371l0-38.744-39.303 0 0 38.744L405.576 369.371zM268.469 563.155l0 135.57c0 10.687 8.776 19.37 19.616 19.37l78.187 0 0-154.94L268.469 563.155zM264.912 524.378c-10.84 0-19.587 8.686-19.587 19.371 0 10.721 8.747 19.406 19.587 19.406 0 0 1.278 0 3.557 0l0-38.777C266.19 524.378 264.912 524.378 264.912 524.378z" />

</svg>
