<?xml version="1.0" encoding="utf-8"?>
<!DOCTYPE svg PUBLIC "-//W3C//DTD SVG 1.1//EN" "http://www.w3.org/Graphics/SVG/1.1/DTD/svg11.dtd">
<svg style="width:308px;height:308px;" version="1.1" id="图形" xmlns="http://www.w3.org/2000/svg" xmlns:xlink="http://www.w3.org/1999/xlink" x="0px" y="0px" width="1025px" height="1024px" viewBox="0 0 1025 1024" enable-background="new 0 0 1025 1024" xml:space="preserve">
  <path class="svgpath" data-index="path_0" fill="#666" d="M986.048 388.8l-14.336 0c-51.072-206.784-237.312-360.32-459.84-360.32-222.592 0-408.704 153.536-459.712 360.32L37.952 388.8C16.96 388.8 0 405.76 0 426.688l0 170.688C0 618.24 16.96 635.328 37.952 635.328l18.944 0c0.064 0 0.128-0.064 0.192-0.064 47.936 164.48 182.464 291.904 351.04 329.536 1.344 17.152 15.232 30.72 32.704 30.72l142.08 0c18.368 0 33.28-14.848 33.28-33.216l0-9.472c0-18.368-14.848-33.152-33.28-33.152l-142.08 0c-12.288 0-22.656 6.912-28.352 16.896-158.656-36.224-284.8-156.864-328.896-312.448 6.848-6.848 11.136-16.384 11.136-26.816L94.72 426.688c0-12.288-6.272-22.656-15.296-29.568 47.424-195.136 222.784-340.16 432.448-340.16 209.664 0 385.152 145.024 432.576 340.096-9.152 6.912-15.424 17.344-15.424 29.632l0 170.688c0 20.864 17.152 37.952 38.016 37.952l19.008 0c20.864 0 38.016-17.088 38.016-37.952L1024.064 426.688C1024.064 405.76 1006.912 388.8 986.048 388.8z" />
<path class="svgpath" data-index="path_1" fill="#666" d="M248.896 382.464l28.096 11.328C271.104 400.704 265.216 407.424 259.264 413.888l177.984 0 0 23.04c-21.312 23.488-49.664 43.776-84.928 60.8 42.688 12.608 94.72 19.008 156.288 19.264C501.632 526.528 495.232 536.32 489.344 546.624 420.416 541.632 363.392 530.176 317.952 512.448c-49.92 19.008-110.976 32.896-183.296 41.472C130.24 544.896 124.864 536.128 118.464 527.552c64.96-6.144 120.128-16.448 165.504-30.656C259.264 483.52 239.296 467.52 224 448.96 204.672 466.56 184.64 482.304 163.968 496.192 158.272 489.856 151.552 483.264 143.872 476.416 189.44 446.976 224.448 415.616 248.896 382.464zM143.168 356.864l166.464 0C302.656 346.752 294.208 336 284.352 324.736l26.176-15.744c10.304 11.136 20.992 23.68 32.064 37.312L324.928 356.864l163.2 0 0 68.352L459.52 425.216 459.52 380.992 171.712 380.992l0 43.968L143.168 424.96 143.168 356.864zM189.44 556.096l251.648 0 0 116.224L412.544 672.32l0-15.36L217.92 656.96l0 15.36L189.44 672.32 189.44 556.096zM412.544 579.52 217.92 579.52 217.92 633.6l194.624 0L412.544 579.52zM396.224 437.312 248.704 437.312c17.344 19.52 40.192 35.456 68.48 47.744C349.952 471.744 376.32 455.872 396.224 437.312z" />
<path class="svgpath" data-index="path_2" fill="#666" d="M545.344 334.208l108.8 0 0 296.576c0 24.384-11.968 36.544-35.904 36.544-13.12 0-25.344-0.448-36.736-1.216-0.96-7.232-2.496-16-4.48-25.856 13.056 1.856 24.384 2.88 33.856 2.88 10.56 0 15.872-4.992 15.872-14.912L626.752 544.064 572.672 544.064c0.768 56-9.856 98.752-32 128.256-5.632-7.104-12.736-13.888-21.248-20.48 17.344-25.152 25.92-60.672 25.92-106.752L545.344 334.208zM626.752 357.952 572.672 357.952 572.672 428.16l54.08 0L626.752 357.952zM572.672 521.408l54.08 0L626.752 450.816 572.672 450.816 572.672 521.408zM686.144 335.616l190.784 0c-1.472 19.776-2.496 35.456-3.264 46.848-2.112 37.824-22.272 56.32-60.992 55.552-10.496-0.192-27.008-0.704-49.728-1.408-1.472-9.6-3.136-19.136-4.992-28.928 19.136 2.176 36.096 3.52 51.264 4.032 22.144 0.704 34.112-9.344 35.968-29.952 0.768-6.336 1.472-13.376 1.984-20.928l-131.776 0 0 105.344 162.88 0 0 21.504c-10.24 42.752-28.992 80-56.512 111.68 22.272 19.968 49.728 35.584 82.88 46.592-8.896 9.728-16.384 18.56-22.528 26.368-31.616-14.016-58.368-31.424-80.384-52.224-19.648 18.368-42.88 34.624-69.376 48.64-4.864-8-10.112-16.128-15.872-24.128 25.728-12.48 48-27.392 66.624-44.608-25.152-30.464-41.6-67.136-49.472-110.08l-18.24 0 0 181.76-29.312 0L686.08 335.616zM847.936 489.92l-88 0c8.128 35.072 22.4 64.96 42.752 89.536C823.936 553.984 838.912 524.224 847.936 489.92z" />

</svg>
